<?xml version="1.0" encoding="utf-8"?>
<svg xmlns="http://www.w3.org/2000/svg" width="1500" height="1500" viewBox="0 0 1500 1500" fill="none">
<rect width="1500" height="1500" fill="white"/>
<path d="M640 900V600C640 544.772 595.228 500 540 500C484.772 500 440 544.772 440 600L440 900C440 955.228 484.772 1000 540 1000C595.228 1000 640 955.228 640 900Z" fill="#061A1E"/>
<path d="M650 750C650 805.228 694.772 850 750 850C805.228 850 850 805.228 850 750C850 694.772 805.228 650 750 650C694.772 650 650 694.772 650 750Z" fill="#061A1E"/>
<path d="M1060 900V600C1060 544.772 1015.23 500 960 500C904.772 500 860 544.772 860 600V900C860 955.228 904.772 1000 960 1000C1015.23 1000 1060 955.228 1060 900Z" fill="#061A1E"/>
</svg>